<svg width="22" height="22" viewBox="0 0 22 22" fill="none" xmlns="http://www.w3.org/2000/svg">
  <path d="M11 2C14.17 2 14.5 2.01 15.53 2.06C16.56 2.11 17.21 2.28 17.76 2.53C18.33 2.78 18.8 3.13 19.27 3.6C19.74 4.07 20.09 4.54 20.34 5.11C20.59 5.66 20.76 6.31 20.81 7.34C20.86 8.37 20.87 8.7 20.87 11.87C20.87 15.04 20.86 15.37 20.81 16.4C20.76 17.43 20.59 18.08 20.34 18.63C20.09 19.2 19.74 19.67 19.27 20.14C18.8 20.61 18.33 20.96 17.76 21.21C17.21 21.46 16.56 21.63 15.53 21.68C14.5 21.73 14.17 21.74 11 21.74C7.83 21.74 7.5 21.73 6.47 21.68C5.44 21.63 4.79 21.46 4.24 21.21C3.67 20.96 3.2 20.61 2.73 20.14C2.26 19.67 1.91 19.2 1.66 18.63C1.41 18.08 1.24 17.43 1.19 16.4C1.14 15.37 1.13 15.04 1.13 11.87C1.13 8.7 1.14 8.37 1.19 7.34C1.24 6.31 1.41 5.66 1.66 5.11C1.91 4.54 2.26 4.07 2.73 3.6C3.2 3.13 3.67 2.78 4.24 2.53C4.79 2.28 5.44 2.11 6.47 2.06C7.5 2.01 7.83 2 11 2ZM11 5.13C7.68 5.13 5 7.82 5 11.13C5 14.44 7.68 17.13 11 17.13C14.32 17.13 17 14.44 17 11.13C17 7.82 14.32 5.13 11 5.13ZM11 15C8.79 15 7 13.21 7 11C7 8.79 8.79 7 11 7C13.21 7 15 8.79 15 11C15 13.21 13.21 15 11 15ZM17.5 4.88C16.83 4.88 16.3 5.4 16.3 6.07C16.3 6.74 16.83 7.27 17.5 7.27C18.17 7.27 18.7 6.74 18.7 6.07C18.7 5.4 18.17 4.88 17.5 4.88Z" fill="white"/>
</svg> 