<svg width="22" height="22" viewBox="0 0 22 22" fill="none" xmlns="http://www.w3.org/2000/svg">
  <path d="M18.1272 7.60132C18.1375 7.78585 18.1375 7.97039 18.1375 8.15492C18.1375 12.5 15.0222 17.5 9.10322 17.5C7.32925 17.5 5.66963 16.9812 4.25 16.0875C4.50455 16.1234 4.74887 16.1337 5.01366 16.1337C6.48765 16.1337 7.84175 15.6353 8.91533 14.793C7.52575 14.7571 6.34762 13.7962 5.93964 12.4906C6.13955 12.5265 6.33947 12.5522 6.54963 12.5522C6.84522 12.5522 7.14081 12.5009 7.41584 12.4086C5.9623 12.0973 4.86323 10.759 4.86323 9.1366V9.09064C5.29192 9.33444 5.78908 9.48327 6.31695 9.50068C5.45126 8.92218 4.88268 7.91101 4.88268 6.77258C4.88268 6.17325 5.04688 5.62508 5.33223 5.14768C6.89625 7.11664 9.22115 8.40068 11.8322 8.55975C11.7808 8.31594 11.7499 8.0619 11.7499 7.80785C11.7499 5.99873 13.1909 4.5 14.9957 4.5C15.9329 4.5 16.778 4.90825 17.3671 5.5632C18.0918 5.41437 18.7855 5.13949 19.3951 4.77016C19.1583 5.53262 18.6611 6.17325 18.0076 6.57127C18.6405 6.4981 19.2528 6.32379 19.8215 6.08C19.3952 6.73086 18.8575 7.30936 18.1272 7.60132Z" fill="white"/>
</svg> 